<svg xmlns="http://www.w3.org/2000/svg" viewBox="0 0 32 32" fill="none">
  <rect x="2" y="2" width="28" height="28" rx="6" stroke="rgba(255,255,255,0.15)" stroke-width="1" fill="rgba(255,255,255,0.03)"/>
  <path d="M16 6c-5 0-6 2-6 4v3h6v1H10c-2 0-4 1-4 5v3c0 3 2 4 4 4h2v-3c0-2 2-4 4-4h4c2 0 3-1 3-3v-6c0-2-1-4-3-4h-4z" stroke="rgba(255,255,255,0.6)" stroke-width="1.2" fill="none"/>
  <path d="M16 26c5 0 6-2 6-4v-3h-6v-1h6c2 0 4-1 4-5v-3c0-3-2-4-4-4h-2v3c0 2-2 4-4 4h-4c-2 0-3 1-3 3v6c0 2 1 4 3 4h4z" stroke="rgba(255,255,255,0.6)" stroke-width="1.2" fill="none"/>
  <circle cx="12" cy="10" r="1" fill="rgba(255,255,255,0.3)"/>
  <circle cx="20" cy="22" r="1" fill="rgba(255,255,255,0.3)"/>
</svg>
